<?xml version="1.0" encoding="utf-8"?>
<!-- Generator: Adobe Illustrator 23.0.1, SVG Export Plug-In . SVG Version: 6.00 Build 0)  -->
<svg version="1.1" xmlns="http://www.w3.org/2000/svg" xmlns:xlink="http://www.w3.org/1999/xlink" x="0px" y="0px"
	 viewBox="0 0 500 500" style="enable-background:new 0 0 500 500;" xml:space="preserve">
<style type="text/css">
	.st0{fill:#FFFFFF;}
	.st1{fill:#FFDCC4;}
	.st2{fill:#E6EAED;}
	.st3{fill:#B3DFFC;}
	.st4{opacity:0.82;fill:url(#SVGID_1_);}
	.st5{opacity:0.82;fill:url(#SVGID_2_);}
	.st6{opacity:0.82;fill:url(#SVGID_3_);}
	.st7{fill:#23A263;}
	.st8{fill:#FAF9FB;}
	.st9{fill:#EE3D1E;}
	.st10{fill:#B3B3B3;}
	.st11{fill:#4B4C63;}
	.st12{opacity:0.32;fill:#FFFFFF;}
	.st13{fill:#1EBBF0;}
	.st14{clip-path:url(#SVGID_5_);fill:#F3921D;}
	.st15{clip-path:url(#SVGID_5_);fill:#FAF9FB;}
	.st16{clip-path:url(#SVGID_7_);fill:#F3BA40;}
	.st17{clip-path:url(#SVGID_9_);fill:#E7E7E5;}
	.st18{clip-path:url(#SVGID_9_);fill:#E6EAED;}
	.st19{fill:#1088D7;}
	.st20{clip-path:url(#SVGID_11_);fill:#0E76BB;}
	.st21{clip-path:url(#SVGID_13_);fill:#E7E7E5;}
	.st22{clip-path:url(#SVGID_13_);fill:#E6EAED;}
	.st23{fill:url(#SVGID_14_);}
	.st24{fill:#FEC4AD;}
	.st25{fill:#4097A5;}
	.st26{fill:url(#SVGID_15_);}
	.st27{fill:url(#SVGID_16_);}
	.st28{fill:url(#SVGID_17_);}
	.st29{fill:url(#SVGID_18_);}
	.st30{fill:url(#SVGID_19_);}
	.st31{fill:#97A3CC;}
	.st32{fill:#FF3A46;}
	.st33{fill:#A6AEBA;}
	.st34{fill:#613531;}
	.st35{fill:#F3BA40;}
	.st36{fill:#75769A;}
	.st37{fill:#23232E;}
	.st38{fill:#FEB200;}
	.st39{fill:none;stroke:#FAC500;stroke-miterlimit:10;}
	.st40{fill:#FC9D00;}
	.st41{clip-path:url(#SVGID_21_);}
	.st42{fill:#5657E5;}
	.st43{fill:#45BCA7;}
	.st44{clip-path:url(#SVGID_23_);fill:#3F9371;}
	.st45{clip-path:url(#SVGID_25_);fill:#E7E7E5;}
	.st46{clip-path:url(#SVGID_25_);fill:#E6EAED;}
	.st47{fill:#282C3B;}
	.st48{fill:#133A50;}
	.st49{fill:#F8C9A5;}
	.st50{fill:#D2DCEB;}
</style>
<g id="BACKGROUND">
	<g>
		<rect class="st0" width="500" height="500"/>
		<g>
			<g>
				<ellipse class="st1" cx="258.1" cy="431.28" rx="235.35" ry="10.15"/>
				<path class="st2" d="M22.75,429.52c0,0,105.37,4.39,235.35,4.39s235.35-4.39,235.35-4.39c0-2.98-105.37-5.39-235.35-5.39
					S22.75,426.55,22.75,429.52z"/>
			</g>
			<g>
				<path class="st3" d="M56.88,425.77c0.25-16.42-3.69-33.06-8.43-48.75c-6.32-20.92-14.15-41.66-15.62-63.73
					c-1.47-22.08,4.93-46.51,21.28-58.25c19.12-13.74,47.2-7.5,62.64-26.37c15.31-18.72,8.09-48.65,10.35-74.2
					c3.66-41.33,34.59-73.56,68.21-88.91c44.59-20.36,113.22-23.62,155.76,1.87c25.9,15.52,52.02,40.6,53.33,83.85
					c0.77,25.21-5.64,50.31-3.71,75.49c2.09,27.28,7.68,33.5,49.71,53.8c50.58,24.43,22.46,101.5,24.78,145.2H56.88z"/>
				<g>
					<g>
						<linearGradient id="SVGID_1_" gradientUnits="userSpaceOnUse" x1="304.455" y1="99.47" x2="304.455" y2="57">
							<stop  offset="0" style="stop-color:#FFFFFF;stop-opacity:0"/>
							<stop  offset="0.1406" style="stop-color:#FFFFFF;stop-opacity:0.1413"/>
							<stop  offset="0.9946" style="stop-color:#FFFFFF"/>
						</linearGradient>
						<path class="st4" d="M387.32,99.47H221.59c6.56-3.81-1.5-4.31,9.1-3.42c5.59,0.47,11.15,1.61,15.57-1.86
							c4.42-3.46,7.46-8.37,11.4-12.37c3.93-4.01,9.51-7.25,14.96-5.92c3.52,0.85,6.59,3.52,10.2,3.47
							c9.84-0.14,11-18.19,20.8-18.92c5.56-0.4,10.57,5.51,15.91,3.92c2.89-0.86,4.68-3.63,6.72-5.86c0.49-0.53,1-1.04,1.54-1.51
							c8.33,2.71,16.17,6.17,23.28,10.43C364.18,75.29,377.35,85.59,387.32,99.47z"/>
						<linearGradient id="SVGID_2_" gradientUnits="userSpaceOnUse" x1="435.945" y1="329.11" x2="435.945" y2="297.46">
							<stop  offset="0" style="stop-color:#FFFFFF;stop-opacity:0"/>
							<stop  offset="0.1406" style="stop-color:#FFFFFF;stop-opacity:0.1413"/>
							<stop  offset="0.9946" style="stop-color:#FFFFFF"/>
						</linearGradient>
						<path class="st5" d="M480.25,329.11h-88.61c4.81-2.79-1.1-3.16,6.67-2.51c4.1,0.34,8.17,1.18,11.41-1.36
							c3.24-2.54,5.47-6.13,8.35-9.07c2.89-2.94,6.97-5.31,10.97-4.34c2.58,0.63,4.82,2.59,7.48,2.55
							c7.2-0.11,8.05-13.33,15.24-13.86c4.07-0.3,7.74,4.03,11.65,2.87c2.12-0.63,3.43-2.67,4.93-4.29
							c0.54-0.59,1.13-1.14,1.76-1.64C476.09,306.43,479.06,317.3,480.25,329.11z"/>
						<linearGradient id="SVGID_3_" gradientUnits="userSpaceOnUse" x1="128.1" y1="264.72" x2="128.1" y2="220.45">
							<stop  offset="0" style="stop-color:#FFFFFF;stop-opacity:0"/>
							<stop  offset="0.1406" style="stop-color:#FFFFFF;stop-opacity:0.1413"/>
							<stop  offset="0.9946" style="stop-color:#FFFFFF"/>
						</linearGradient>
						<path class="st6" d="M211.12,264.72c-3.37-0.24-6.73-0.7-10.11-0.7H45.08c9.71-15.75,31.85-18.08,31.85-18.08
							c14.67-3.38,29.87-5.11,39.82-17.27c2.08-2.55,3.74-5.3,5.07-8.22c6.06,1.23,11.51,5.35,14.27,10.9
							c1.64,3.29,2.38,7,4.3,10.14c1.91,3.13,5.66,5.67,9.15,4.51c2.76-0.93,4.56-3.88,7.4-4.47c3.52-0.74,6.57,2.44,8.46,5.49
							c1.9,3.05,3.84,6.63,7.33,7.49c2.49,0.61,5.04-0.38,7.55-0.89C191.31,251.34,201.94,258.2,211.12,264.72z"/>
					</g>
				</g>
			</g>
		</g>
	</g>
</g>
<g id="OBJECTS">
	<g>
		<g>
			<rect x="355.87" y="290.45" class="st7" width="73.25" height="4.48"/>
			<rect x="353.14" y="291.34" class="st8" width="73.25" height="4.48"/>
			<polygon class="st8" points="408.01,296.55 427.13,425.13 448.83,419.17 429.25,290.71 			"/>
			<polygon class="st7" points="411.07,295.71 408.01,296.55 427.63,425.4 430.73,424.55 			"/>
			<polygon class="st7" points="426.47,291.48 445.58,420.06 448.83,419.17 429.25,290.71 			"/>
			<polygon class="st7" points="407.96,296.51 345.93,298.03 369.05,422.68 427.63,425.4 			"/>
			<polygon class="st8" points="362.71,354.1 358.85,328.8 405.53,327.06 409.39,352.36 			"/>
		</g>
		<g>
			<rect x="329.48" y="290.45" class="st9" width="73.25" height="4.48"/>
			<rect x="326.75" y="291.34" class="st8" width="73.25" height="4.48"/>
			<polygon class="st8" points="381.62,296.55 400.74,425.13 422.44,419.17 402.86,290.71 			"/>
			<polygon class="st9" points="384.68,295.71 381.62,296.55 401.24,425.4 404.34,424.55 			"/>
			<polygon class="st9" points="400.08,291.48 419.19,420.06 422.44,419.17 402.86,290.71 			"/>
			<polygon class="st9" points="381.57,296.51 319.54,298.03 342.66,422.68 401.24,425.4 			"/>
			<polygon class="st10" points="381.57,296.51 319.54,298.03 342.66,422.68 401.24,425.4 			"/>
			<polygon class="st8" points="336.32,354.1 332.46,328.8 379.14,327.06 383.01,352.36 			"/>
		</g>
		<g>
			<g>
				<path class="st11" d="M391.72,275.33c-1.16,2.78-6.31,15.52-7.08,18.05c-0.77,2.53,4.16,1.3,5.61-0.29
					c1.73-1.9,1.49-3.66,2.81-6.93c2.2-5.44,2.51-6.98,4.13-8.05c1.09-0.72,10.72-2.18,13.23-2.48c2.51-0.31,4.82-2.21,7.85-3.14
					c3.04-0.93,8.93-1.66,8.93-1.66l-0.31-3.72c0,0-14.84,1.99-24.65,4.1C395.03,272.76,392.12,274.38,391.72,275.33z"/>
			</g>
			<g>
				<path class="st11" d="M365.32,275.33c1.16,2.78,6.31,15.52,7.08,18.05c0.77,2.53-4.16,1.3-5.61-0.29
					c-1.73-1.9-1.49-3.66-2.81-6.93c-2.2-5.44-2.51-6.98-4.13-8.05c-1.09-0.72-10.72-2.18-13.23-2.48
					c-2.51-0.31-4.82-2.21-7.85-3.14c-3.04-0.93-8.93-1.66-8.93-1.66l0.31-3.72c0,0,14.84,1.99,24.65,4.1
					C362.01,272.76,364.92,274.38,365.32,275.33z"/>
			</g>
			<g>
				<path class="st11" d="M328.08,268.12l0.02,3.13c0,0.65,0.36,1.22,0.88,1.6c1.42,1.04,2.59,3.14,2.95,4.07
					c0.68,1.76,3.31,11.53,7.99,14.93c4.68,3.41,19.5,2.69,23.33,1.14c8.61-3.49,10.57-17.87,11.88-18.67
					c1.32-0.8,3.99-0.82,5.32-0.04c1.33,0.78,3.51,15.12,12.17,18.48c3.85,1.49,18.68,2,23.31-1.48c4.63-3.48,7.11-13.31,7.76-15.07
					c0.34-0.93,1.48-3.05,2.89-4.11c0.52-0.39,0.86-0.97,0.86-1.61l-0.02-3.13c-0.01-1.01-0.79-1.84-1.8-1.9
					c-6.7-0.4-25.21-2.09-40.79,0.88c-0.85,0.16-1.7,0.33-2.51,0.49c-3.03,0.6-6.13,0.63-9.16,0.07c-0.81-0.15-1.66-0.3-2.51-0.45
					c-15.63-2.73-34.11-0.75-40.8-0.25C328.84,266.26,328.07,267.11,328.08,268.12z M384.69,271.55c0.72-2.38,1.71-2.88,8.81-3.83
					c7.1-0.95,24.6-1.22,26.56,1.9c0.98,1.56,1.56,7.38-2.02,15.38c-3.58,7.99-12.92,7.14-18.12,7.02
					c-6.67-0.15-9.55-2.52-11.75-6.89C385.98,280.76,383.87,274.28,384.69,271.55z M335.47,270.28c1.91-3.14,19.42-3.15,26.53-2.31
					c7.11,0.84,8.11,1.32,8.86,3.69c0.87,2.71-1.14,9.23-3.27,13.63c-2.13,4.4-4.97,6.82-11.64,7.07
					c-5.2,0.19-14.53,1.18-18.23-6.76C334.03,277.66,334.51,271.85,335.47,270.28z"/>
				<path class="st12" d="M362,267.97c7.11,0.84,8.11,1.32,8.86,3.69c0.87,2.71-1.14,9.23-3.27,13.63
					c-2.13,4.4-4.97,6.82-11.64,7.07c-5.2,0.19-14.53,1.18-18.23-6.76c-3.7-7.94-3.21-13.75-2.26-15.32
					C337.38,267.13,354.89,267.13,362,267.97z"/>
				<path class="st12" d="M393.5,267.72c7.1-0.95,24.6-1.22,26.56,1.9c0.98,1.56,1.56,7.38-2.02,15.38
					c-3.58,7.99-12.92,7.14-18.12,7.02c-6.67-0.15-9.55-2.52-11.75-6.89c-2.2-4.37-4.31-10.85-3.48-13.58
					C385.41,269.17,386.4,268.67,393.5,267.72z"/>
			</g>
		</g>
		<g>
			<g>
				<g>
					<polygon class="st8" points="332.67,281.04 332.04,424.96 355.1,424.96 355.15,281.04 					"/>
					<polygon class="st13" points="336.6,281.04 332.67,281.04 332.62,425.4 336.6,425.4 					"/>
					<polygon class="st13" points="351.56,281.04 350.93,424.96 355.1,424.96 355.15,281.04 					"/>
					<rect x="253.28" y="280.98" class="st13" width="79.34" height="144.42"/>
					<rect x="253.28" y="280.98" class="st10" width="79.34" height="144.42"/>
					
						<rect x="234.14" y="325.38" transform="matrix(-1.836970e-16 1 -1 -1.836970e-16 648.6143 61.2198)" class="st10" width="119.11" height="59.08"/>
				</g>
			</g>
		</g>
	</g>
	<g>
		<g>
			<defs>
				<path id="SVGID_4_" d="M94.29,425.47v-41.21h188.53c5.52,0,10,4.48,10,10v21.21c0,5.52-4.48,10-10,10H94.29z"/>
			</defs>
			<clipPath id="SVGID_5_">
				<use xlink:href="#SVGID_4_"  style="overflow:visible;"/>
			</clipPath>
			<path class="st14" d="M94.29,425.47v-41.21h190.65c4.35,0,7.88,3.53,7.88,7.88v25.45c0,4.35-3.53,7.88-7.88,7.88H94.29z"/>
			<path class="st15" d="M83.59,425.47v-41.21h188.58c5.5,0,9.95,4.46,9.95,9.95v21.31c0,5.5-4.46,9.95-9.95,9.95H83.59z"/>
			<path class="st14" d="M72.87,425.47v-41.21H262.5c4.92,0,8.9,3.99,8.9,8.9v23.41c0,4.92-3.99,8.9-8.9,8.9H72.87z"/>
			<path class="st15" d="M44.76,425.47v-41.21h161.98c5.5,0,9.95,4.46,9.95,9.95v21.31c0,5.5-4.46,9.95-9.95,9.95H44.76z"/>
			<path class="st14" d="M34.05,425.47v-41.21h163.03c4.92,0,8.9,3.99,8.9,8.9v23.41c0,4.92-3.99,8.9-8.9,8.9H34.05z"/>
		</g>
		<g>
			<defs>
				<path id="SVGID_6_" d="M73.32,425.47v-41.21h105.99c5.52,0,10,4.48,10,10v21.21c0,5.52-4.48,10-10,10H73.32z"/>
			</defs>
			<clipPath id="SVGID_7_">
				<use xlink:href="#SVGID_6_"  style="overflow:visible;"/>
			</clipPath>
			
				<rect x="110.71" y="346.87" transform="matrix(-1.836970e-16 1 -1 -1.836970e-16 536.1818 273.549)" class="st16" width="41.21" height="115.99"/>
		</g>
		<g>
			<defs>
				<path id="SVGID_8_" d="M73.28,389.1h103.67c3.7,0,6.7,3,6.7,6.7v18.65c0,3.7-3,6.7-6.7,6.7H73.28V389.1z"/>
			</defs>
			<clipPath id="SVGID_9_">
				<use xlink:href="#SVGID_8_"  style="overflow:visible;"/>
			</clipPath>
			
				<rect x="73.28" y="389.1" transform="matrix(-1 -1.224647e-16 1.224647e-16 -1 256.9194 810.2476)" class="st17" width="110.36" height="32.05"/>
			
				<rect x="73.28" y="389.1" transform="matrix(-1 -1.224647e-16 1.224647e-16 -1 256.9194 788.8335)" class="st18" width="110.36" height="10.63"/>
		</g>
	</g>
	<g>
		<path class="st19" d="M268.09,383.83H115.28c-1.83,0-3.31-1.48-3.31-3.31v-30.97c0-1.83,1.48-3.31,3.31-3.31h152.81V383.83z"/>
		<path class="st0" d="M251.42,376.14H130.78c-1.19,0-2.15-0.96-2.15-2.15v-15.9c0-1.19,0.96-2.15,2.15-2.15h120.64V376.14z"/>
		<path class="st2" d="M268.09,358.29H113.84c-1.03,0-1.87-0.84-1.87-1.87v-8.31c0-1.03,0.84-1.87,1.87-1.87h154.24V358.29z"/>
		<g>
			<defs>
				<path id="SVGID_10_" d="M327.24,383.82v-37.58h-61.78c-1.99,0-3.61,1.62-3.61,3.61v30.36c0,1.99,1.62,3.61,3.61,3.61H327.24z"/>
			</defs>
			<clipPath id="SVGID_11_">
				<use xlink:href="#SVGID_10_"  style="overflow:visible;"/>
			</clipPath>
			
				<rect x="275.75" y="332.34" transform="matrix(-1.836970e-16 1 -1 -1.836970e-16 659.5738 70.4925)" class="st20" width="37.58" height="65.39"/>
		</g>
		<g>
			<defs>
				<path id="SVGID_12_" d="M327.27,349.24h-59.85c-0.94,0-1.69,0.76-1.69,1.69v28.27c0,0.94,0.76,1.69,1.69,1.69h59.85V349.24z"/>
			</defs>
			<clipPath id="SVGID_13_">
				<use xlink:href="#SVGID_12_"  style="overflow:visible;"/>
			</clipPath>
			<rect x="265.73" y="349.24" class="st21" width="61.55" height="31.66"/>
			<path class="st22" d="M327.27,349.24h-59.85c-0.94,0-1.69,0.76-1.69,1.69v28.27c0,0.94,0.76-20.16,1.69-20.16h59.85V349.24z"/>
		</g>
	</g>
	<g>
		
			<linearGradient id="SVGID_14_" gradientUnits="userSpaceOnUse" x1="398.3813" y1="326.5212" x2="398.3813" y2="369.4707" gradientTransform="matrix(-1 0 0 1 516.2048 0)">
			<stop  offset="0" style="stop-color:#272438"/>
			<stop  offset="1" style="stop-color:#304260"/>
		</linearGradient>
		<path class="st23" d="M114.24,326.52c0,0-7.43,8.37-13.35,15.4l3.19,27.55c0,0,0.47-11.97,9.27-18.18
			c8.8-6.21,21.41-23.71,21.41-23.71L114.24,326.52z"/>
		<path class="st24" d="M115.61,302.39c0,0-6.92,3.84-8.32,4.27c-1.4,0.42-3.05,0.96-4.9,0c-1.85-0.96-5.95-5.24-6.73-7.93
			l3.92-2.09l6.13,5.28l7.22-3.56L115.61,302.39z"/>
		<path class="st25" d="M127.34,288.99l-7.91-3.16c0,0-2.35,1.23-4.34,4.94c-1.99,3.72-5.55,7.61-5.55,7.61l6.52,7.6
			c0,0,4.55-4.64,6.75-8.57C125.01,293.5,127.34,288.99,127.34,288.99z"/>
		
			<linearGradient id="SVGID_15_" gradientUnits="userSpaceOnUse" x1="402.2744" y1="277.1136" x2="403.7328" y2="277.1136" gradientTransform="matrix(-0.866 -0.5 -0.5 0.866 600.6694 248.6841)">
			<stop  offset="0" style="stop-color:#272438"/>
			<stop  offset="1" style="stop-color:#304260"/>
		</linearGradient>
		<path class="st26" d="M108.15,294.3l1.26,0.73l8.3-14.38c0.2-0.35,0.08-0.79-0.27-1l0,0c-0.35-0.2-0.79-0.08-1,0.27L108.15,294.3z
			"/>
		<path class="st24" d="M134.23,270.47c0,0,0.51,3.92,0.92,5.92c0.42,2,1.11,2.68,1.6,3.16c0.49,0.48,5.97,4.2,5.97,4.2
			s-11.96,22.3-15.42,10.68c-1.09-3.67-5.55-9.72-5.55-9.72s4.17-3.27,4.79-4.92c0.62-1.65,0.97-6.43,0.97-6.43L134.23,270.47z"/>
		<path class="st2" d="M129.49,281.6c-0.58,0.42-1.16,0.84-1.75,1.24c-1.03,0.7-2.08,1.38-3.14,2.03c-0.63,0.39-1.29,0.75-1.94,1.12
			c-0.54-0.79-0.91-1.29-0.91-1.29s4.17-3.27,4.79-4.92c0.62-1.65,0.97-6.43,0.97-6.43l6.71-2.89c0,0,0.51,3.92,0.92,5.92
			c0,0.01,0,0.01,0,0.02C133.35,278.2,131.46,279.93,129.49,281.6z"/>
		<g>
			
				<linearGradient id="SVGID_16_" gradientUnits="userSpaceOnUse" x1="404.8628" y1="336.6291" x2="404.8628" y2="402.3125" gradientTransform="matrix(-1 0 0 1 516.2048 0)">
				<stop  offset="0" style="stop-color:#272438"/>
				<stop  offset="1" style="stop-color:#304260"/>
			</linearGradient>
			<path class="st27" d="M107.37,336.66c-2.43-0.53-7.23,4.91-9.71,11.52c-1.78,4.74-1.02,11.3-0.24,20.38
				c0.52,6.16,2.36,33.75,2.36,33.75h7.17c0,0,1.33-15.73,1.84-27.24c0.75-16.89,0.95-19.64,0.95-19.64l16.38-18.77
				C126.11,336.66,111.11,337.48,107.37,336.66z"/>
			<path class="st25" d="M129.11,329.71c-6-0.24-15.44-2.63-14.88-3.19c1.25-1.25,2.79-15.08,2.83-18.66
				c0.12-10.08,2.36-22.03,2.36-22.03l5.77-4.2c0,0,0.26,4.01,4.75,4.37c9.82,0.79,9.44-4.55,9.44-4.55s7.82,2.63,10.28,4.66
				c3.32,2.74,1.8,6-0.15,19.24c-0.8,5.46-0.69,12.09-1.29,17.11c-0.49,4.06,0.32,14.16-2.67,13.92
				C140.55,334.42,134.66,329.52,129.11,329.71z"/>
			
				<linearGradient id="SVGID_17_" gradientUnits="userSpaceOnUse" x1="388.089" y1="386.8438" x2="388.089" y2="392.4443" gradientTransform="matrix(-1 0 0 1 516.2048 0)">
				<stop  offset="0" style="stop-color:#272438"/>
				<stop  offset="1" style="stop-color:#304260"/>
			</linearGradient>
			<path class="st28" d="M127.2,386.91c1.35-0.27,3.78,0.27,4.99,1.08c1.21,0.81,2.56,0.81,2.56,0.81v3.64h-13.28L127.2,386.91z"/>
			
				<linearGradient id="SVGID_18_" gradientUnits="userSpaceOnUse" x1="414.1353" y1="402.0605" x2="414.1353" y2="409.5472" gradientTransform="matrix(-1 0 0 1 516.2048 0)">
				<stop  offset="0" style="stop-color:#272438"/>
				<stop  offset="1" style="stop-color:#304260"/>
			</linearGradient>
			<polygon class="st29" points="99.93,402.23 106.5,402.06 106.95,406.19 97.19,409.55 			"/>
		</g>
		<path class="st24" d="M147.36,299.6c0,0-6.91,5.64-9.73,7.39c-4.08,2.53-4.63,3.4-6.49,2.88c-1.86-0.51-21.48-16.75-21.48-16.75
			l0.98-3.69c0,0,8.21,5.45,13.86,8.46c3.24,1.73,7.4,3.98,7.4,3.98l7.29-6.23L147.36,299.6z"/>
		<path class="st25" d="M132.9,299.66c0,0,10.01-9.81,11.29-11c6.62-6.15,9.64-0.19,6.34,7.78c-1.04,2.51-5.45,8.4-10.08,11.01
			C137.55,306.47,134.41,301.59,132.9,299.66z"/>
		
			<linearGradient id="SVGID_19_" gradientUnits="userSpaceOnUse" x1="387.3082" y1="329.6072" x2="387.3082" y2="388.8566" gradientTransform="matrix(-1 0 0 1 516.2048 0)">
			<stop  offset="0" style="stop-color:#272438"/>
			<stop  offset="1" style="stop-color:#304260"/>
		</linearGradient>
		<path class="st30" d="M114.32,341.04c1.93-4.01,6.01-5.75,11.04-11.43c0,0,3.52,0.11,9.39,0.79c4.9,0.56,11.02,2.72,11.02,2.72
			c0.63,3.02,0.38,6.9-3.32,11.28c-2.43,2.87-5.68,1.31-12.19,3.9c-1.33,1.11-2.17,2-2.17,2s-0.12,4.43,2.38,15.43
			c2.5,11,3.73,23.14,3.73,23.14l-6.7-1.14c0,0-6.08-11.84-8.43-16.79c-6.07-12.75-6.53-17.76-7.17-21.38
			C111.32,346.27,112.58,343.37,114.32,341.04z"/>
		<g>
			<path id="XMLID_1_" class="st0" d="M117.63,305.6l-11.2,3.23c-1.15,0.33-2.49-0.27-2.99-1.32l-10.9-23.3
				c-0.5-1.04,0.02-2.16,1.16-2.49l11.1-3.28c2.02-0.2,3.03,0.2,3.54,1.27l10.93,23.12C119.79,303.92,119.59,304.68,117.63,305.6z"
				/>
			<path id="XMLID_4_" class="st31" d="M116.29,305.84l-11.2,3.24c-1.15,0.33-2.49-0.27-2.99-1.32l-10.9-23.3
				c-0.5-1.04,0.02-2.16,1.16-2.49l11.1-3.28c2.02-0.2,3.03,0.2,3.54,1.27l10.93,23.12C118.44,304.16,118.24,304.92,116.29,305.84z"
				/>
			<path id="XMLID_3_" class="st32" d="M116.05,306l-11.25,3.26c-1.16,0.33-2.5-0.26-3-1.32l-10.95-23.4
				c-0.5-1.05,0.02-2.17,1.17-2.5l11.16-3.29c1.2-0.35,2.6,0.24,3.11,1.32l11.02,23.33C117.83,304.49,117.26,305.65,116.05,306z"/>
			<g>
				<path class="st31" d="M92.21,287.2l1.41-0.59c0.25-0.11,0.37-0.4,0.27-0.65l0,0c-0.11-0.25-0.4-0.37-0.65-0.27l-1.41,0.59
					c-0.25,0.11-0.37,0.4-0.27,0.65l0,0C91.67,287.19,91.96,287.31,92.21,287.2z"/>
				<path class="st31" d="M93.83,291.08l1.41-0.59c0.25-0.11,0.37-0.4,0.27-0.65l0,0c-0.11-0.25-0.4-0.37-0.65-0.27l-1.41,0.59
					c-0.25,0.11-0.37,0.4-0.27,0.65l0,0C93.29,291.06,93.58,291.18,93.83,291.08z"/>
				<path class="st31" d="M95.45,294.95l1.41-0.59c0.25-0.11,0.37-0.4,0.27-0.65l0,0c-0.11-0.25-0.4-0.37-0.65-0.27l-1.41,0.59
					c-0.25,0.11-0.37,0.4-0.27,0.65l0,0C94.91,294.94,95.2,295.05,95.45,294.95z"/>
				<path class="st31" d="M97.07,298.82l1.41-0.59c0.25-0.11,0.37-0.4,0.27-0.65l0,0c-0.11-0.25-0.4-0.37-0.65-0.27l-1.41,0.59
					c-0.25,0.11-0.37,0.4-0.27,0.65l0,0C96.53,298.81,96.82,298.93,97.07,298.82z"/>
				<path class="st31" d="M98.69,302.69l1.41-0.59c0.25-0.11,0.37-0.4,0.27-0.65l0,0c-0.11-0.25-0.4-0.37-0.65-0.27l-1.41,0.59
					c-0.25,0.11-0.37,0.4-0.27,0.65l0,0C98.15,302.68,98.44,302.8,98.69,302.69z"/>
				<path class="st31" d="M100.31,306.57l1.41-0.59c0.25-0.11,0.37-0.4,0.27-0.65l0,0c-0.11-0.25-0.4-0.37-0.65-0.27l-1.41,0.59
					c-0.25,0.11-0.37,0.4-0.27,0.65l0,0C99.77,306.55,100.06,306.67,100.31,306.57z"/>
			</g>
		</g>
		<g>
			<path class="st24" d="M97.02,298.96c-0.2-0.47-0.4-0.93-0.6-1.37c0.75-0.32,1.77-0.89,2.35-1.15c1.25-0.57,2.2-0.65,2.2-0.65
				l0.31,1.16c0,0-1.17,0.27-2.19,0.82C98.47,298.1,97.6,298.62,97.02,298.96z"/>
			<path class="st24" d="M96.36,297.43c-0.22-0.51-0.43-0.99-0.6-1.39c1.39-0.86,3.37-1.74,3.37-1.74l0.68,0.94
				c0,0-1.64,0.89-2.26,1.35C97.24,296.82,96.76,297.16,96.36,297.43z"/>
			<path class="st24" d="M97.68,300.46c-0.19-0.43-0.39-0.89-0.58-1.34c0.82-0.26,2.15-0.7,2.64-0.96c0.74-0.39,1.13-0.53,1.13-0.53
				l0.4,1.05c0,0-1,0.8-2.35,1.29C98.37,300.16,97.98,300.33,97.68,300.46z"/>
			<path class="st24" d="M97.76,300.66c0.69-0.13,1.65-0.35,2.04-0.56c0.64-0.36,0.91-0.38,0.91-0.38l0.19,0.86
				c0,0-1.2,0.64-2.58,1.34C98.15,301.55,97.96,301.12,97.76,300.66z"/>
			<polygon class="st24" points="99.33,301.4 98.31,301.92 96.43,300.82 94.93,296.6 96.01,294.3 			"/>
		</g>
		
			<rect x="124.24" y="392.44" transform="matrix(-1 -1.224647e-16 1.224647e-16 -1 258.9972 787.2182)" class="st33" width="10.51" height="2.33"/>
		<path class="st24" d="M118.54,266.61c0.09,2.16,1.08,6.98,1.83,8.9c1.03,2.67,2.87,4.68,5,5.37c2.13,0.69,5.27-1.93,6.63-3.96
			c1.35-2.03,1.03-4.64,1.02-7.09c-0.01-2.46-1.01-4.92-1.01-4.92s0.16-4.09-2.14-5.25C121.07,255.19,118.45,264.45,118.54,266.61z"
			/>
		<path class="st34" d="M117.95,265.36c2.54,0.1,3.23-2.93,8.33-1.31c1.98,0.63,3.43-0.9,3.43-0.9c0.42,1.53-0.48,1.78-0.32,3.12
			c0.17,1.34,2.08,2.19,2.08,2.19s0.55,2,1.18,2.5c0.63,0.5,2.15,4.74,2.15,4.74s1.36-4.08,1.44-4.73c0.08-0.65,1.92-2.08,2.64-4.23
			c0.73-2.15-0.6-10.57-5.83-10.07c0,0-5.65-3.84-12.34,1.59C118.14,260.34,117.95,265.36,117.95,265.36z"/>
		<path class="st24" d="M131.56,268.95c-0.12-0.99-0.65-3.46,1.56-3.85c2.21-0.39,2.07,3.04,1.4,3.9c-0.67,0.85-1.45,2.63-1.45,2.63
			S131.74,270.44,131.56,268.95z"/>
	</g>
	<g>
		<g>
			
				<rect x="171.78" y="184.56" transform="matrix(-1 -1.224647e-16 1.224647e-16 -1 412.4612 372.8188)" class="st9" width="68.9" height="3.69"/>
			
				<rect x="174.34" y="185.3" transform="matrix(-1 -1.224647e-16 1.224647e-16 -1 417.5923 374.2849)" class="st8" width="68.9" height="3.69"/>
			<polygon class="st8" points="191.63,189.59 173.65,313.17 153.24,308.25 171.65,184.78 			"/>
			<polygon class="st9" points="188.76,188.9 191.63,189.59 173.18,313.39 170.26,312.69 			"/>
			<polygon class="st9" points="174.27,185.41 156.29,308.99 153.24,308.25 171.65,184.78 			"/>
			<polygon class="st9" points="191.68,189.56 250.03,190.82 228.28,311.16 173.18,313.39 			"/>
			<polygon class="st10" points="191.68,189.56 250.03,190.82 228.28,311.16 173.18,313.39 			"/>
			<polygon class="st8" points="233.58,246.05 237.21,225.18 193.97,214.76 190.33,235.63 			"/>
		</g>
		<g>
			<polygon class="st8" points="215.55,179.58 216.12,310.32 191.1,310.32 191.06,179.58 			"/>
			<polygon class="st35" points="212.03,179.58 215.55,179.58 215.6,310.67 212.03,310.67 			"/>
			<polygon class="st35" points="194.27,179.58 194.84,310.32 191.1,310.32 191.06,179.58 			"/>
			
				<rect x="215.6" y="179.53" transform="matrix(-1 -1.224647e-16 1.224647e-16 -1 502.3941 490.2027)" class="st35" width="71.19" height="131.14"/>
			
				<rect x="238.81" y="189.46" transform="matrix(-1.836970e-16 1 -1 -1.836970e-16 465.924 -33.9909)" class="st8" width="22.3" height="53.01"/>
		</g>
		<g>
			<path class="st36" d="M315.2,127.83l72.3,68.69c0.18,0.17,0.22,0.44,0.1,0.66l-2.5,4.62l-96.66-28.54
				c-0.02,0-0.03-0.01-0.04-0.02l-77.32-65.67l2.5-4.62c0.12-0.22,0.37-0.33,0.61-0.27L311.82,126
				C313.09,126.3,314.25,126.94,315.2,127.83z"/>
			<path class="st11" d="M316.18,136.32l68.92,65.48l-99.28-23.53c-0.07-0.02-0.13-0.05-0.18-0.1l-74.56-70.6l93.1,22.24
				C308.68,130.88,312.82,133.13,316.18,136.32z"/>
			<g>
				<path class="st36" d="M301.13,149.07c25.11,13.6,43.01,29.16,39.98,34.76l-22.31,41.19l-90.94-49.24l22.31-41.19
					C253.2,128.99,276.02,135.48,301.13,149.07z"/>
				<path class="st11" d="M227.86,175.78c-0.26,0.47-0.36,1.03-0.3,1.68c0.42,6.59,17.34,20.67,40.28,33.09
					c22.92,12.41,43.9,18.89,49.71,15.67c0.55-0.31,0.97-0.7,1.24-1.2c3.03-5.6-14.85-21.16-39.97-34.76
					C253.72,176.67,230.89,170.19,227.86,175.78z"/>
				<path class="st37" d="M227.56,177.46c0.42,6.59,17.34,20.67,40.28,33.09c22.92,12.41,43.9,18.89,49.71,15.67
					c1.34-6.36-15.85-21.26-39.69-34.18C254.02,179.13,232.17,172.88,227.56,177.46z"/>
			</g>
			<g>
				<path class="st38" d="M351.76,210.94c0,0-3.96,9.71-4.39,17.34c-0.42,7.63,1.18,14.97,1.18,14.97l1.46,1.64l1.65-1.09l1.54,2.64
					l1.06-2.29l1.91,1.92l1.49-1.53l0.83,3.27l2.31-1.68l2.19,0.52c0,0,1.47-8.62,1.89-12.18c1.15-9.8-0.15-15.31-2.27-22.92
					C358.81,197.94,351.76,210.94,351.76,210.94z"/>
				<path class="st39" d="M332.58,142.97c0,0,22.25,19.11,26.28,26.18c4.04,7.07-1.54,32.22-1.54,32.22"/>
				<path class="st40" d="M362.6,211.54l-10.84-0.6l0.57-10.24c0.17-2.99,2.73-5.29,5.72-5.12l0,0c2.99,0.17,5.29,2.73,5.12,5.72
					L362.6,211.54z"/>
			</g>
			<g>
				<defs>
					<path id="SVGID_20_" d="M227.56,177.46c4.25-4.23,31.6,1.98,59.88,20.06c22.06,14.1,31.36,22.84,30.12,28.7
						c-1.93,1.07,1.57,6.54-3.42,5.45l4.89,81.69H211v-134.4L227.56,177.46z"/>
				</defs>
				<clipPath id="SVGID_21_">
					<use xlink:href="#SVGID_20_"  style="overflow:visible;"/>
				</clipPath>
				<g class="st41">
					<polygon class="st8" points="236.7,179.58 237.27,310.32 216.58,310.32 216.54,179.58 					"/>
					<polygon class="st42" points="233.18,179.58 236.7,179.58 236.75,310.67 233.18,310.67 					"/>
					<polygon class="st42" points="219.75,179.58 220.32,310.32 216.58,310.32 216.54,179.58 					"/>
					
						<rect x="236.75" y="179.53" transform="matrix(-1 -1.224647e-16 1.224647e-16 -1 544.6882 490.2027)" class="st42" width="71.19" height="131.14"/>
					
						<rect x="236.75" y="179.53" transform="matrix(-1 -1.224647e-16 1.224647e-16 -1 544.6882 490.2027)" class="st10" width="71.19" height="131.14"/>
					
						<rect x="259.95" y="189.46" transform="matrix(-1.836970e-16 1 -1 -1.836970e-16 487.0711 -55.138)" class="st8" width="22.3" height="53.01"/>
				</g>
			</g>
		</g>
	</g>
	<g>
		<g>
			<path class="st43" d="M199.24,346.52v-34.63h102.74c9.56,0,17.31,7.75,17.31,17.31v0c0,9.56-7.75,17.31-17.31,17.31H199.24z"/>
			<path class="st8" d="M179.72,343.02v-27.62c0-1.93,1.57-3.5,3.5-3.5h99.24c9.56,0,17.31,7.75,17.31,17.31v0
				c0,9.56-7.75,17.31-17.31,17.31h-99.24C181.29,346.52,179.72,344.95,179.72,343.02z"/>
			<path class="st43" d="M177.26,343.02v-27.62c0-1.93,1.57-3.5,3.5-3.5h71.95c9.56,0,17.31,7.75,17.31,17.31l0,0
				c0,9.56-7.75,17.31-17.31,17.31h-71.95C178.83,346.52,177.26,344.95,177.26,343.02z"/>
			<path class="st43" d="M159.19,343.02v-27.62c0-1.93,1.57-3.5,3.5-3.5h72.83c9.07,0,16.43,7.36,16.43,16.43v1.77
				c0,9.07-7.36,16.43-16.43,16.43h-72.83C160.76,346.52,159.19,344.95,159.19,343.02z"/>
		</g>
		<g>
			<defs>
				<path id="SVGID_22_" d="M153.66,346.52v-34.63h56.43c9.56,0,17.31,7.75,17.31,17.31v0c0,9.56-7.75,17.31-17.31,17.31H153.66z"/>
			</defs>
			<clipPath id="SVGID_23_">
				<use xlink:href="#SVGID_22_"  style="overflow:visible;"/>
			</clipPath>
			<path class="st44" d="M153.66,346.52v-34.63h56.43c9.56,0,17.31,7.75,17.31,17.31v0c0,9.56-7.75,17.31-17.31,17.31H153.66z"/>
		</g>
		<g>
			<defs>
				<path id="SVGID_24_" d="M153.62,315.76h55.33c7.38,0,13.36,5.98,13.36,13.36l0,0c0,7.38-5.98,13.36-13.36,13.36h-55.33V315.76z"
					/>
			</defs>
			<clipPath id="SVGID_25_">
				<use xlink:href="#SVGID_24_"  style="overflow:visible;"/>
			</clipPath>
			
				<rect x="153.62" y="315.76" transform="matrix(-1 -1.224647e-16 1.224647e-16 -1 375.927 658.2304)" class="st45" width="68.69" height="26.72"/>
			
				<rect x="153.62" y="315.76" transform="matrix(-1 -1.224647e-16 1.224647e-16 -1 375.927 637.6414)" class="st46" width="68.69" height="6.13"/>
		</g>
	</g>
	<g>
		<g>
			<path class="st0" d="M265.79,252.87c0.79-1.28,4.64-3.84,4.64-3.84s3.37,3.61,4.23,7.76c0.86,4.15,8.65,20.22,8.99,21.61
				c0.34,1.39-0.46,7.11-0.46,7.11l-6.72-2.25c0,0-0.4-4.29-2.73-7.32c-2.33-3.03-7.87-10.58-8.67-15.75
				S263.86,255.97,265.79,252.87z"/>
			<path class="st24" d="M252.73,236.71c0,0,0.08,0.6-0.15,2.73c-0.23,2.13-1.21,3.26-1.73,3.94c-0.53,0.68-4.07,2.41-4.9,2.87
				c0,0,8.15,10.53,13.94,10.3c11.09-0.45,5.36-10.15,5.36-10.15s-3.62-1.55-4.9-2.64c-0.76-0.65-1.13-4.31-1.13-4.31L252.73,236.71
				z"/>
			<path class="st0" d="M260.35,243.75c0,0,2.62,5.94-1.32,6.6c-6.27,1.04-8.18-6.98-8.18-6.98l-6.91,3.56l9.22,14.28l13.83-7.24
				l-0.26-6.91L260.35,243.75z"/>
			<g>
				<polygon class="st47" points="287.02,355.33 286.6,359.8 289.27,366.73 281.15,362.88 281.48,356.28 				"/>
				<path class="st48" d="M274.86,292.17c0,0,15.56,12.81,17.29,16.78c1.74,3.97-4.13,48.04-4.13,48.04l-7.63-0.45
					c0,0-0.72-14.45-1.39-22.15c-0.7-8,0.14-19.56,0.14-19.56s-8.79-3.55-13.22-4.62c-17.97-4.32-14.29-15.57-14.04-22.76
					L274.86,292.17z"/>
			</g>
			<g>
				<path class="st48" d="M261.29,294.24c0,0,12.08,8.68,13.81,12.65c1.74,3.97-13.17,51.27-13.17,51.27l-7.44,0.32
					c0,0,3.55-19.84,4.29-27.53c0.74-7.69,1.83-17.11,1.83-17.11s-10.2-1.48-14.21-3.62c-6.97-3.72-5.22-8.78-4.97-15.97H261.29z"/>
				<polygon class="st47" points="261.94,358.16 261.14,361.51 263.7,370.56 254.53,365.48 256.51,356.71 				"/>
			</g>
			<path class="st35" d="M249.22,244.11c0,0,1.93,11.06,10.67,11.06c0,0,3.74,25.94,3.44,28.81c-0.3,2.87,0.53,11.1-1.46,12.51
				c-4.9,3.47-17.94,1.59-20.53,1.59c0,0-0.87-11.89-1.17-18.98c-0.3-7.09,2.72-16.59,2.41-20.06c-0.3-3.47-4.07-9.65-4.07-9.65
				L249.22,244.11z"/>
			<path class="st35" d="M262.35,244.73c0,0,3.6,7.88-2.46,10.44c0,0,0.36,37.49,2.62,40.21c2.26,2.72,13.41,0.74,14.02,1.05
				c0.6,0.3-4.37-14-4.37-17.55s-1.73-29.86-1.73-29.86L262.35,244.73z"/>
			<path class="st24" d="M269.35,229.05c-0.15,1.84-1.46,5.66-1.78,8.41c-0.32,2.75-1.65,4.88-3.4,6.26
				c-1.75,1.39-4.44,1.3-5.84,0.52c-1.4-0.78-4.3-1.94-5.75-7.24c-1.45-5.3-0.13-9.9-0.13-9.9l8.63-1.63L269.35,229.05z"/>
			<path class="st47" d="M270.15,230.29c-2.5,1.97-4.24,0.58-5.81-0.1c-2.01-0.87-6.76-3.59-6.76-3.59s-1.11,2.49-1.11,4.39
				c0,1.89-1.07,3.4-1.07,3.4s0.18-2.1-1.03-2.96c-1.22-0.86-1.98,1.59-1.63,3.36c0.35,1.77,0.89,2.4,0.89,2.4s-0.61,1.25-1.16,2.77
				c0,0-0.94-4.85-1.89-6.79c-0.95-1.93-1.23-4.6-0.29-7.39c0.94-2.79,5.07-2.36,5.07-2.36s4.22-4.39,8.53-2.78
				c4.3,1.61,7.61,6.2,8.22,5.38C272.1,226.02,272.55,228.4,270.15,230.29z"/>
			<path class="st47" d="M255.91,232.44c0.01,0.17,0.47,0.35,0.55,0.41c0.16,0.13,0.07,0.13,0.5,1.44c0.32,0.97,1.25,1.54,3.37,1.61
				c1.62,0.05,1.82-1.05,2.11-1.52c0.29-0.46,0.45-0.51,0.7-0.47c0.24,0.04,0.36,0.13,0.49,0.66c0.13,0.53,0.27,1.8,1.85,2.15
				c1.25,0.28,1.89-0.06,2.3-0.71c0.73-1.16,0.73-1.14,0.92-1.21c0.19-0.07,0.35-0.59,0.36-0.9c0.01-0.31-0.91-0.52-1.87-0.67
				c-0.96-0.15-2.45-0.39-3.06-0.25c-0.61,0.14-0.62,0.34-0.9,0.3c-0.28-0.04-0.26-0.25-0.79-0.57c-0.53-0.32-3.11-0.73-4.07-0.89
				c-0.96-0.15-2.33-0.26-2.41,0.03C255.93,232.01,255.9,232.24,255.91,232.44z M264.24,233.79c0.19-0.36,0.59-0.31,1.8-0.17
				c1.21,0.14,1.74,0.17,1.91,0.39c0.17,0.22,0.16,0.82-0.28,1.54c-0.51,0.83-0.94,1.16-1.92,1c-1.05-0.17-1.53-0.8-1.6-1.46
				C264.09,234.44,264.17,233.92,264.24,233.79z M257.43,232.34c0.23-0.16,1.83,0.15,3.02,0.39c1.19,0.24,1.59,0.32,1.66,0.72
				c0.02,0.15-0.06,0.66-0.32,1.27c-0.26,0.61-0.62,1.1-2.51,0.81c-1.34-0.21-1.84-0.69-2.06-1.64
				C257.02,233.07,257.19,232.49,257.43,232.34z"/>
		</g>
		<g>
			<path class="st49" d="M260.29,295.64l0.86-2.74c0,0,7.13,2.29,9.09,2.74c1.96,0.45,5.11,1.96,5.11,1.96h-12.5L260.29,295.64z"/>
			<path class="st0" d="M263.61,293.53l-0.75,4.07c0,0-18.21-1.28-21.44-6.66c-1.55-2.59-2.06-3-3.81-11.74
				c-3.81-19.03-1.66-28.76,0.91-29.81c2.56-1.06,7.07,4.53,6.63,9.2s3.57,26.01,3.57,26.01S254.1,289.04,263.61,293.53z"/>
		</g>
		<g>
			<polygon class="st33" points="268.37,298.89 275.92,298.89 283.47,272.46 277.73,272.46 			"/>
			<polygon class="st50" points="270.54,298.89 300.01,298.89 307.56,272.46 278.09,272.46 			"/>
			
				<rect x="266.2" y="298.29" transform="matrix(-1 -1.224647e-16 1.224647e-16 -1 566.2097 598.5513)" class="st50" width="33.81" height="1.97"/>
			
				<rect x="249.29" y="298.29" transform="matrix(-1 -1.224647e-16 1.224647e-16 -1 515.493 598.5513)" class="st33" width="16.91" height="1.97"/>
			<path class="st33" d="M286.72,286.96c-0.85,2.02-0.25,4.21,1.34,4.88c1.59,0.67,3.58-0.42,4.43-2.45
				c0.85-2.02,0.25-4.21-1.34-4.88C289.56,283.84,287.58,284.94,286.72,286.96z"/>
		</g>
	</g>
</g>
<g id="DESIGNED_BY_FREEPIK">
</g>
</svg>
